<svg version="1.1" id="Layer_1" xmlns="http://www.w3.org/2000/svg" xmlns:xlink="http://www.w3.org/1999/xlink" x="0px" y="0px" viewBox="0 0 1000 324" enable-background="new 0 0 1000 324" xml:space="preserve">
 <g>
  <g>
   <g>
    <path fill-rule="evenodd" clip-rule="evenodd" d="M166.12,0H48.88C21.89,0,0,21.89,0,48.89v117.23c0,27,21.89,48.88,48.88,48.88
				h117.24c27,0,48.88-21.88,48.88-48.88V48.88C215,21.89,193.11,0,166.12,0z M134.43,57.85c5.36,0,9.7,4.34,9.7,9.7
				c0,5.36-4.34,9.7-9.7,9.7c-5.36,0-9.7-4.34-9.7-9.7C124.73,62.19,129.07,57.85,134.43,57.85z M134.43,85.25
				c5.36,0,9.7,4.34,9.7,9.7s-4.34,9.7-9.7,9.7c-5.36,0-9.7-4.34-9.7-9.7S129.07,85.25,134.43,85.25z M107.09,57.85
				c5.36,0,9.7,4.34,9.7,9.7c0,5.36-4.34,9.7-9.7,9.7c-5.36,0-9.7-4.34-9.7-9.7C97.39,62.19,101.73,57.85,107.09,57.85z
				 M107.09,85.25c5.36,0,9.7,4.34,9.7,9.7s-4.34,9.7-9.7,9.7c-5.36,0-9.7-4.34-9.7-9.7S101.73,85.25,107.09,85.25z M79.75,57.85
				c5.36,0,9.7,4.34,9.7,9.7c0,5.36-4.34,9.7-9.7,9.7c-5.36,0-9.7-4.34-9.7-9.7C70.05,62.19,74.39,57.85,79.75,57.85z M79.75,85.25
				c5.36,0,9.7,4.34,9.7,9.7s-4.34,9.7-9.7,9.7c-5.36,0-9.7-4.34-9.7-9.7S74.39,85.25,79.75,85.25z M53.46,187.72
				c-10.24,0-18.55-8.31-18.55-18.55c0-10.25,8.31-18.56,18.55-18.56c10.25,0,18.56,8.31,18.56,18.56
				C72.03,179.41,63.71,187.72,53.46,187.72z M160.68,188.55c-10.24,0-18.55-8.31-18.55-18.55c0-10.25,8.31-18.56,18.55-18.56
				c10.25,0,18.56,8.31,18.56,18.56C179.24,180.24,170.93,188.55,160.68,188.55z M193.27,37.66l-19.18,71.44
				c-5.12,19.07-21.28,31.04-41.03,31.04h-12.65c-4.18,0-10.23-2.26-12.74-4.62c-0.42-0.39-1.08-0.39-1.5,0
				c-2.51,2.36-8.56,4.62-12.74,4.62h-13.9c-19.12,0-33.61-10.9-39.41-29.12L23.81,59.86c-0.32-1.02-0.15-2.1,0.49-2.97
				c0.63-0.86,1.6-1.36,2.69-1.36l3.12,0.01c7.52,0.03,14.11,4.86,16.38,12.02l11.98,37.62c3.24,10.19,13.61,17.04,24.3,17.04
				l4.65-0.01c4.8,0,8.18-2.46,10.22-4.66c1.06-1.15,2.54-1.82,4.11-1.82l10.44,0.01c1.48,0,2.92,0.59,3.91,1.68
				c1.98,2.17,5.49,4.79,10.33,4.79l4.43,0.01c11.04,0,21.75-7.45,24.62-18.11l15.53-57.84c2.03-7.53,8.88-12.78,16.67-12.78l2.74,0
				c0.26,0,0.52,0.04,0.76,0.14C192.93,34.37,193.7,36.08,193.27,37.66z">
    </path>
    <path fill-rule="evenodd" clip-rule="evenodd" d="M53.46,162.51c-3.67,0-6.65,2.98-6.65,6.66c0,3.68,2.98,6.66,6.65,6.66
				c3.68,0,6.66-2.98,6.66-6.66C60.12,165.49,57.14,162.51,53.46,162.51z">
    </path>
    <path fill-rule="evenodd" clip-rule="evenodd" d="M160.68,163.34c-3.67,0-6.65,2.98-6.65,6.66c0,3.68,2.98,6.66,6.65,6.66
				c3.68,0,6.66-2.98,6.66-6.66C167.34,166.32,164.36,163.34,160.68,163.34z">
    </path>
   </g>
   <g>
    <g>
     <path d="M574.08,162.64c-4.83,0-10.11-0.23-12.45,3.99c-7.34,13.26-24.1,17.42-37.87,17.42c-27.39,0-48.2-22.25-48.2-49.6
					c0-27.35,20.81-49.6,48.2-49.6c12.17,0,28.01,2.35,37.41,16.56c2.66,4.02,7.92,3.1,12.75,3.1c6.77,0,5.14-8.07,2.48-12.1
					c-13.68-20.68-36.17-25.03-52.63-25.03c-37.03,0-67.15,30.08-67.15,67.05c0,36.97,30.13,67.05,67.15,67.05
					c23.94,0,44.53-10.35,53.75-27C579.85,170.28,581.24,162.64,574.08,162.64z">
     </path>
     <path d="M826.34,70.88c-4.83,0-8.74,2.12-8.74,6.94v115.72c0,4.82,3.91,6.32,8.74,6.32c4.83,0,8.74-1.5,8.74-6.32V77.82
					C835.09,73,831.17,70.88,826.34,70.88z">
     </path>
     <path d="M826.34,14c-6.12,0-11.1,4.97-11.1,11.09c0,6.12,4.98,11.09,11.1,11.09c6.12,0,11.1-4.97,11.1-11.09
					C837.45,18.97,832.47,14,826.34,14z">
     </path>
     <path d="M776.86,71.54c-0.17,0-0.51-0.02-0.52-0.02c-0.03,0-8.24,0-10.74,6.24c-2.41,6.05-15.54,47.37-29.44,87.64
					c-0.45,1.31-0.99,2.59-1.49,3.87l-29.89-75.09c-1.33-3.22-3.31-5.64-5.9-7.09c-1.49-0.86-3.15-1.46-5.21-1.46
					c-0.02,0-0.03,0.01-0.05,0.01c-0.02,0-0.03-0.01-0.05-0.01c-2.06,0-3.72,0.6-5.21,1.46c-2.6,1.45-4.57,3.86-5.9,7.09
					l-29.89,75.09c-0.5-1.28-1.04-2.56-1.49-3.87c-14.01-40.6-27.03-81.6-29.44-87.64c-2.49-6.24-11.08-6.23-11.25-6.22
					c-4.4,0.09-6.15,1.24-6.01,4.08c-0.02,0.65,0.03,1.35,0.25,2.18c0.67,2.57,21.58,66.29,38.61,114.65
					c1.11,3.15,3.51,7.63,9.18,7.63c3.76,0,6.55-2.48,7.56-5.03l31.96-81.47c0.31-0.75,0.99-1.12,1.67-1.14
					c0.69,0.02,1.37,0.39,1.67,1.14l31.96,81.47c1.01,2.55,4,5.03,7.56,5.03c5.78,0,8.14-4.45,9.18-7.63
					c15.98-48.57,37.94-112.08,38.61-114.65c0.22-0.83,0.27-1.53,0.25-2.18C783.01,72.78,781.26,71.63,776.86,71.54z">
     </path>
     <path d="M431.46,181.83h-114.6c-1.92,0-3.47-1.55-3.47-3.46v-64.85h100.19c4.66,0,6.71-4.07,6.71-9.09
					c0-5.02-2.05-9.09-6.71-9.09H313.39V37.06c0-2.02,1.64-3.66,3.67-3.66h114.4c4.66,0,6.71-4.07,6.71-9.09
					c0-5.02-2.05-9.09-6.71-9.09H302.24c-5.02,0-8.24,4.76-8.24,12.21c0,0,0.01,162.78,0.01,162.88c0.08,4.83,2.83,9.71,7.36,9.71
					h130.09c4.66,0,6.71-4.07,6.71-9.09C438.17,185.9,436.12,181.83,431.46,181.83z">
     </path>
     <path d="M991.26,14c-4.83,0-8.74,2.12-8.74,6.94v68.4c-9.93-16.23-29.12-21.8-46.02-21.8c-36.99,0-67.08,30.05-67.08,66.98
					c0,36.93,30.09,66.98,67.08,66.98c14.43,0,36.91-7.23,46.02-22.93v14.72c0,0.03,0.02,0.05,0.02,0.08c0,0.17,0.03,0.27,0.06,0.28
					c0.22,4.49,3.98,5.97,8.66,5.97c4.83,0,8.74-1.5,8.74-6.32v-18.35V32.99V20.94C1000,16.12,996.09,14,991.26,14z M936.49,184.06
					c-27.36,0-47.92-22.22-47.92-49.54s20.56-49.54,47.92-49.54c15.86,0,45.79,9.51,46.02,44.91v8
					C982.29,172.72,950.86,184.06,936.49,184.06z">
     </path>
    </g>
   </g>
  </g>
  <g>
   <path d="M0,322.96v-47.87h32.85v7.4H8.41v12.41h20.41v7.4H8.41v13.28h24.45v7.39H0z">
   </path>
   <path d="M38.56,308.82v-6.45h17.26v6.45H38.56z">
   </path>
   <path d="M60.71,305.59c0-10.48,7.41-18.16,17.97-18.16c6.76,0,10.86,2.87,13.31,6.17l-4.96,4.59c-1.94-2.72-4.6-4.09-7.98-4.09
			c-6.32,0-10.49,4.74-10.49,11.49c0,6.74,4.17,11.56,10.49,11.56c3.38,0,6.04-1.44,7.98-4.09l4.96,4.59
			c-2.45,3.3-6.54,6.17-13.31,6.17C68.12,323.82,60.71,316.14,60.71,305.59z">
   </path>
   <path d="M96.46,305.59c0-9.9,6.83-18.16,17.83-18.16c11.15,0,17.9,8.26,17.9,18.16c0,9.98-6.76,18.23-17.9,18.23
			C103.29,323.82,96.46,315.57,96.46,305.59z M124.36,305.59c0-6.1-3.59-11.49-10.07-11.49c-6.39,0-9.99,5.39-9.99,11.49
			c0,6.17,3.59,11.56,9.99,11.56C120.76,317.15,124.36,311.76,124.36,305.59z">
   </path>
   <path d="M182.4,322.96v-22.6c0-3.74-1.65-6.25-5.68-6.25c-3.38,0-6.54,2.37-8.05,4.59v24.26h-7.55v-22.6
			c0-3.74-1.65-6.25-5.75-6.25c-3.31,0-6.4,2.37-7.98,4.67v24.18h-7.54V288.3h7.54v4.73c1.44-2.15,6.04-5.6,11.29-5.6
			c5.18,0,8.34,2.58,9.49,6.39c2.01-3.16,6.61-6.39,11.79-6.39c6.4,0,10,3.45,10,10.48v25.04H182.4z">
   </path>
   <path d="M242.33,322.96v-22.6c0-3.74-1.65-6.25-5.68-6.25c-3.38,0-6.54,2.37-8.05,4.59v24.26h-7.55v-22.6
			c0-3.74-1.65-6.25-5.75-6.25c-3.31,0-6.4,2.37-7.98,4.67v24.18h-7.54V288.3h7.54v4.73c1.44-2.15,6.04-5.6,11.29-5.6
			c5.18,0,8.34,2.58,9.49,6.39c2.01-3.16,6.61-6.39,11.79-6.39c6.4,0,10,3.45,10,10.48v25.04H242.33z">
   </path>
   <path d="M257.52,305.59c0-10.05,7.34-18.16,17.62-18.16c10.42,0,17.11,7.97,17.11,18.87v1.8h-26.81
			c0.57,5.24,4.53,9.55,11.07,9.55c3.38,0,7.41-1.37,9.86-3.81l3.45,4.95c-3.45,3.3-8.55,5.02-14.09,5.02
			C265.29,323.82,257.52,316.57,257.52,305.59z M275.14,293.61c-6.47,0-9.42,4.95-9.78,9.19h19.55
			C284.77,298.7,281.97,293.61,275.14,293.61z">
   </path>
   <path d="M299.75,322.96V288.3h7.54v5.1c2.59-3.3,6.76-5.88,11.29-5.88v7.46c-0.65-0.14-1.43-0.21-2.37-0.21
			c-3.16,0-7.41,2.15-8.92,4.59v23.61H299.75z">
   </path>
   <path d="M322.55,305.59c0-10.48,7.41-18.16,17.98-18.16c6.76,0,10.86,2.87,13.3,6.17l-4.96,4.59c-1.94-2.72-4.6-4.09-7.98-4.09
			c-6.32,0-10.49,4.74-10.49,11.49c0,6.74,4.17,11.56,10.49,11.56c3.38,0,6.04-1.44,7.98-4.09l4.96,4.59
			c-2.45,3.3-6.54,6.17-13.3,6.17C329.96,323.82,322.55,316.14,322.55,305.59z">
   </path>
   <path d="M358.3,305.59c0-10.05,7.34-18.16,17.62-18.16c10.42,0,17.11,7.97,17.11,18.87v1.8h-26.81c0.57,5.24,4.53,9.55,11.07,9.55
			c3.38,0,7.41-1.37,9.85-3.81l3.45,4.95c-3.45,3.3-8.55,5.02-14.09,5.02C366.07,323.82,358.3,316.57,358.3,305.59z M375.91,293.61
			c-6.47,0-9.42,4.95-9.78,9.19h19.55C385.55,298.7,382.74,293.61,375.91,293.61z">
   </path>
   <path d="M420.81,322.96V294.9h-5.75v-6.6h5.75v-1.94c0-7.53,4.39-11.98,11-11.98c3.09,0,6.18,0.79,8.34,3.01l-2.95,4.66
			c-1.01-0.93-2.3-1.51-4.03-1.51c-2.94,0-4.81,1.94-4.81,5.81v1.94h7.05v6.6h-7.05v28.06H420.81z">
   </path>
   <path d="M439.01,305.59c0-9.9,6.83-18.16,17.83-18.16c11.15,0,17.9,8.26,17.9,18.16c0,9.98-6.76,18.23-17.9,18.23
			C445.84,323.82,439.01,315.57,439.01,305.59z M466.91,305.59c0-6.1-3.6-11.49-10.07-11.49c-6.4,0-9.99,5.39-9.99,11.49
			c0,6.17,3.59,11.56,9.99,11.56C463.31,317.15,466.91,311.76,466.91,305.59z">
   </path>
   <path d="M482.39,322.96V288.3h7.54v5.1c2.59-3.3,6.76-5.88,11.29-5.88v7.46c-0.65-0.14-1.43-0.21-2.37-0.21
			c-3.16,0-7.41,2.15-8.92,4.59v23.61H482.39z">
   </path>
   <path d="M522.96,316.21l4.67-6.46c3.32,3.52,8.49,6.6,15.17,6.6c6.91,0,9.64-3.38,9.64-6.53c0-10.04-27.97-3.8-27.97-21.46
			c0-7.89,6.97-13.99,17.47-13.99c7.49,0,13.51,2.36,17.98,6.67l-4.82,6.24c-3.74-3.73-8.85-5.46-13.87-5.46
			c-4.96,0-8.12,2.37-8.12,5.96c0,8.9,27.89,3.38,27.89,21.24c0,7.96-5.62,14.78-18.55,14.78
			C533.6,323.82,527.2,320.74,522.96,316.21z">
   </path>
   <path d="M611.12,322.96v-22.6c0-3.74-1.65-6.25-5.67-6.25c-3.39,0-6.55,2.37-8.05,4.59v24.26h-7.56v-22.6
			c0-3.74-1.64-6.25-5.74-6.25c-3.32,0-6.41,2.37-7.98,4.67v24.18h-7.54V288.3h7.54v4.73c1.43-2.15,6.04-5.6,11.29-5.6
			c5.18,0,8.34,2.58,9.49,6.39c2.01-3.16,6.62-6.39,11.8-6.39c6.39,0,10,3.45,10,10.48v25.04H611.12z">
   </path>
   <path d="M649.69,322.96v-3.73c-2.58,2.94-6.61,4.59-11.22,4.59c-5.67,0-12.08-3.81-12.08-11.49c0-7.96,6.41-11.27,12.08-11.27
			c4.68,0,8.71,1.51,11.22,4.45v-5.17c0-4.02-3.3-6.46-8.13-6.46c-3.87,0-7.26,1.44-10.28,4.38l-3.09-5.24
			c4.03-3.8,9.06-5.6,14.6-5.6c7.69,0,14.45,3.23,14.45,12.56v22.96H649.69z M649.69,315.07v-5.24c-1.72-2.36-4.96-3.59-8.27-3.59
			c-4.24,0-7.4,2.44-7.4,6.24c0,3.74,3.16,6.18,7.4,6.18C644.72,318.66,647.97,317.43,649.69,315.07z">
   </path>
   <path d="M667.04,322.96v-47.87h7.54v47.87H667.04z">
   </path>
   <path d="M684.37,322.96v-47.87h7.54v47.87H684.37z">
   </path>
   <path d="M720.42,322.96v-47.87H744c8.76,0,13.65,5.46,13.65,12.2c0,6.03-3.88,10.05-8.34,10.98c5.1,0.79,9.27,5.88,9.27,11.77
			c0,7.39-4.96,12.92-13.95,12.92H720.42z M749.03,288.73c0-3.59-2.45-6.24-6.76-6.24h-13.44v12.41h13.44
			C746.58,294.9,749.03,292.32,749.03,288.73z M749.97,308.89c0-3.59-2.52-6.6-7.35-6.6h-13.8v13.28h13.8
			C747.23,315.57,749.97,313.06,749.97,308.89z">
   </path>
   <path d="M790.24,322.96v-4.59c-2.51,2.8-6.82,5.46-12.29,5.46c-7.47,0-11.13-3.88-11.13-10.98V288.3h7.54v21.82
			c0,5.38,2.74,7.03,6.98,7.03c3.8,0,7.12-2.16,8.91-4.52V288.3h7.56v34.66H790.24z">
   </path>
   <path d="M804.57,318.44l3.45-5.46c2.45,2.51,7.27,4.88,11.8,4.88c4.52,0,6.83-1.94,6.83-4.66c0-6.82-21-1.94-21-15.21
			c0-5.67,4.89-10.55,13.65-10.55c5.9,0,10.37,2.08,13.53,4.88l-3.16,5.31c-2.08-2.36-5.97-4.16-10.28-4.16
			c-3.96,0-6.48,1.8-6.48,4.23c0,6.18,21,1.59,21,15.36c0,6.1-5.1,10.76-14.45,10.76C813.56,323.82,808.18,321.95,804.57,318.44z">
   </path>
   <path d="M840.62,279.4c0-2.58,2.16-4.66,4.67-4.66c2.6,0,4.68,2.08,4.68,4.66c0,2.58-2.08,4.66-4.68,4.66
			C842.77,284.07,840.62,281.98,840.62,279.4z M841.55,322.96V288.3h7.54v34.66H841.55z">
   </path>
   <path d="M882.32,322.96v-21.67c0-5.39-2.74-7.18-6.98-7.18c-3.89,0-7.19,2.3-8.92,4.67v24.18h-7.54V288.3h7.54v4.73
			c2.31-2.72,6.76-5.6,12.22-5.6c7.49,0,11.22,4.02,11.22,11.12v24.4H882.32z">
   </path>
   <path d="M897.51,305.59c0-10.05,7.34-18.16,17.63-18.16c10.42,0,17.1,7.97,17.1,18.87v1.8h-26.81c0.58,5.24,4.54,9.55,11.07,9.55
			c3.38,0,7.4-1.37,9.86-3.81l3.45,4.95c-3.45,3.3-8.55,5.02-14.09,5.02C905.28,323.82,897.51,316.57,897.51,305.59z M915.13,293.61
			c-6.48,0-9.43,4.95-9.78,9.19h19.55C924.76,298.7,921.95,293.61,915.13,293.61z">
   </path>
   <path d="M936.72,318.44l3.45-5.46c2.45,2.51,7.27,4.88,11.8,4.88c4.52,0,6.83-1.94,6.83-4.66c0-6.82-21-1.94-21-15.21
			c0-5.67,4.89-10.55,13.66-10.55c5.9,0,10.37,2.08,13.53,4.88l-3.16,5.31c-2.08-2.36-5.97-4.16-10.28-4.16
			c-3.96,0-6.48,1.8-6.48,4.23c0,6.18,21,1.59,21,15.36c0,6.1-5.11,10.76-14.45,10.76C945.71,323.82,940.32,321.95,936.72,318.44z">
   </path>
   <path d="M970.68,318.44l3.45-5.46c2.44,2.51,7.26,4.88,11.78,4.88c4.54,0,6.84-1.94,6.84-4.66c0-6.82-20.99-1.94-20.99-15.21
			c0-5.67,4.88-10.55,13.66-10.55c5.9,0,10.35,2.08,13.51,4.88l-3.16,5.31c-2.08-2.36-5.97-4.16-10.28-4.16
			c-3.96,0-6.47,1.8-6.47,4.23c0,6.18,20.99,1.59,20.99,15.36c0,6.1-5.1,10.76-14.45,10.76
			C979.65,323.82,974.26,321.95,970.68,318.44z">
   </path>
  </g>
 </g>
</svg>