<svg width="151" height="24" viewBox="0 0 151 24" fill="none" xmlns="http://www.w3.org/2000/svg">
<path d="M0 20.3083L2.65841 16.4475C3.58135 17.4419 4.69881 18.2361 5.94146 18.7806C7.18411 19.3252 8.52543 19.6086 9.88216 19.6131C12.5781 19.6131 13.8369 18.392 13.8369 17.0393C13.8369 13 0.751497 15.8181 0.751497 7.07258C0.751497 3.21178 4.02049 0.00853409 9.37489 0.00853409C12.638 -0.112165 15.8183 1.05137 18.2331 3.24935L15.5465 6.94107C13.7549 5.2924 11.4057 4.38291 8.97097 4.39538C6.92315 4.39538 5.76772 5.33475 5.76772 6.69683C5.76772 11.1119 18.8155 8.32194 18.8155 16.5508C18.8155 20.7967 15.819 24 9.71306 24C5.27925 24 2.14176 22.5064 0 20.3083Z" fill="#00142D"/>
<path d="M37.2554 23.5867V13.7985H26.5184V23.5867H21.6807V0.356104H26.5184V9.47737H37.2554V0.356104H42.1307V23.5867H37.2554Z" fill="#00142D"/>
<path d="M71.5141 23.5961V0.365507H82.1196C87.0606 0.365507 89.7472 3.77541 89.7472 7.88045C89.7472 11.9855 87.0606 15.2921 82.1196 15.2921H76.3237V23.5867L71.5141 23.5961ZM84.8437 7.85227C84.8507 7.41807 84.7663 6.98724 84.5961 6.58772C84.4259 6.1882 84.1737 5.8289 83.8557 5.5331C83.5378 5.2373 83.1612 5.0116 82.7505 4.87063C82.3398 4.72966 81.904 4.67656 81.4714 4.71478H76.3612V10.9522H81.4808C81.9098 10.9902 82.3419 10.9381 82.7495 10.7992C83.1572 10.6604 83.5313 10.438 83.8479 10.1461C84.1646 9.85422 84.4167 9.49941 84.5882 9.10439C84.7597 8.70938 84.8467 8.28289 84.8437 7.85227Z" fill="#00142D"/>
<path d="M92.5842 23.5961V0.365507H94.5568V21.7831H105.604V23.5961H92.5842Z" fill="#00142D"/>
<path d="M107.849 23.5961V0.365507H109.793V23.5961H107.849Z" fill="#00142D"/>
<path d="M130.027 23.6055L115.693 3.6439V23.5961H113.748V0.365507H115.721L129.971 20.0922V0.374903H131.906V23.6055H130.027Z" fill="#00142D"/>
<path d="M135.87 23.6055V0.37491H150.29V2.18789H137.824V10.7831H150.036V12.5867H137.824V21.7831H150.299V23.5961L135.87 23.6055Z" fill="#00142D"/>
<path d="M55.62 8.20924C55.3577 8.20738 55.1007 8.28348 54.8816 8.42788C54.6626 8.57228 54.4914 8.77849 54.3897 9.02034C54.288 9.26219 54.2604 9.5288 54.3104 9.78634C54.3605 10.0439 54.4859 10.2808 54.6707 10.467C54.8556 10.6531 55.0916 10.7802 55.3488 10.8321C55.6059 10.884 55.8727 10.8583 56.1153 10.7583C56.3579 10.6583 56.5653 10.4886 56.7113 10.2706C56.8572 10.0526 56.9351 9.79612 56.9351 9.53376C56.9352 9.1841 56.7969 8.84861 56.5505 8.60049C56.3042 8.35236 55.9697 8.21172 55.62 8.20924Z" fill="#00142D"/>
<path d="M56.8224 0.38426C54.5535 0.38426 52.3356 1.05719 50.4492 2.31791C48.5628 3.57863 47.0927 5.3705 46.2249 7.46686C45.3571 9.56322 45.1305 11.8699 45.5738 14.095C46.0171 16.3202 47.1104 18.3639 48.7155 19.9676C50.3205 21.5713 52.365 22.6629 54.5905 23.1044C56.8161 23.5459 59.1225 23.3174 61.2182 22.4479C63.3138 21.5783 65.1045 20.1067 66.3637 18.2193C67.6229 16.3319 68.294 14.1134 68.2921 11.8446C68.2921 10.3388 67.9954 8.84776 67.4188 7.45672C66.8423 6.06568 65.9973 4.80189 64.9321 3.73758C63.867 2.67327 62.6025 1.82931 61.211 1.25393C59.8194 0.67855 58.3282 0.383025 56.8224 0.38426ZM54.5867 21.8676L52.9146 15.4423L58.2878 22.0179C57.8023 22.0857 57.3127 22.1202 56.8224 22.1212C56.0701 22.1189 55.3204 22.0339 54.5867 21.8676ZM52.708 14.4936L62.6653 20.3083C61.5037 21.1076 60.1892 21.6578 58.8045 21.924L52.708 14.4936ZM63.041 20.0358L52.5577 13.9206L50.9232 7.65497C50.8771 7.46948 50.9054 7.27333 51.0019 7.10837C51.0984 6.94341 51.2556 6.82269 51.4398 6.77197L57.6397 5.03414L66.8924 9.89067C67.025 10.5493 67.091 11.2196 67.0897 11.8915C67.0795 13.466 66.7044 15.0166 65.9937 16.4216C65.2831 17.8266 64.2563 19.0477 62.9941 19.9889L63.041 20.0358Z" fill="#00142D"/>
</svg>
